# xmcd
#
# Track frame offsets: 
#        150
#        22334
#        43559
#        58595
#        70949
#        94153
#        115575
#        134337
#        150149
#
# Disc length: 2409 seconds
#
# Revision: 0
# Processed by: cddbd v1.5.2PL0 Copyright (c) Steve Scherf et al.
# Submitted via: ExactAudioCopy v0.99pb4
#
DISCID=70096709
DTITLE=Gravelroad - Gravel Road
DYEAR=2004
DGENRE=Blues
TTITLE0=Baby I Love You
TTITLE1=Goin Down South
TTITLE2=Bad Dog
TTITLE3=Jesus On The Ward
TTITLE4=Fire Down Below
TTITLE5=Fireman
TTITLE6=Rabbit Run
TTITLE7=Devil Eyes
TTITLE8=Sad Days
EXTD=
EXTT0=
EXTT1=
EXTT2=
EXTT3=
EXTT4=
EXTT5=
EXTT6=
EXTT7=
EXTT8=
PLAYORDER=
